<svg width="28px" height="34px" viewBox="0 0 19 23" fill="none" xmlns="http://www.w3.org/2000/svg">
<!-- <g filter="url(#filter0_b_1_11)">
<path d="M17.0397 16.44V14.52L9.86508 9.72V4.44C9.86508 3.6432 9.26421 3 8.51984 3C7.77548 3 7.1746 3.6432 7.1746 4.44V9.72L0 14.52V16.44L7.1746 14.04V19.32L5.38095 20.76V22.2L8.51984 21.24L11.6587 22.2V20.76L9.86508 19.32V14.04L17.0397 16.44Z" fill="black"/>
</g> -->
<path d="M19 13.44V11.52L11.8254 6.72V1.44C11.8254 0.6432 11.2245 0 10.4801 0C9.73577 0 9.1349 0.6432 9.1349 1.44V6.72L1.9603 11.52V13.44L9.1349 11.04V16.32L7.34125 17.76V19.2L10.4801 18.24L13.619 19.2V17.76L11.8254 16.32V11.04L19 13.44Z" fill="#FFFFFF" stroke="#000000"/>
<defs>
<filter id="filter0_b_1_11" x="-4" y="-1" width="25.0397" height="27.2" filterUnits="userSpaceOnUse" color-interpolation-filters="sRGB">
<feFlood flood-opacity="0" result="BackgroundImageFix"/>
<feGaussianBlur in="BackgroundImage" stdDeviation="2"/>
<feComposite in2="SourceAlpha" operator="in" result="effect1_backgroundBlur_1_11"/>
<feBlend mode="normal" in="SourceGraphic" in2="effect1_backgroundBlur_1_11" result="shape"/>
</filter>
</defs>
</svg>
